<svg width="120" height="120" viewBox="0 0 120 120" fill="none"
    xmlns="http://www.w3.org/2000/svg">
    <path d="M43.0397 99.415C43.1895 100.04 43.4199 100.627 43.7176 101.167L40.8977 101.681C38.8515 102.054 36.9311 100.81 36.4849 98.9466L23.3425 44.0668C23.1732 43.36 23.3842 42.606 23.9244 42.0628L37.8733 33.3189C37.8594 33.6944 37.8996 34.013 37.9493 34.2533C37.9786 34.3945 38.0114 34.5101 38.0394 34.596C38.0476 34.6215 38.0555 34.6444 38.0627 34.6647L46.1745 68.5375L43.4389 69.16C39.4728 70.0624 36.9317 73.9091 37.8651 77.807L43.0397 99.415ZM61.7005 14.0248C63.8873 12.0296 67.4119 13.11 68.0568 15.8028L69.7816 23.0054L68.8367 23.7985C66.3086 25.9205 65.1802 29.2221 65.9375 32.3845L73.1267 62.405L51.2564 67.3812L43.1247 33.4251C42.8284 32.1878 43.2335 30.8739 44.2185 29.9752L61.7005 14.0248ZM91.2145 58.2894L78.2087 61.2487L71.0142 31.2062C70.7055 29.9172 71.1587 28.5488 72.2263 27.6527L84.892 17.0216C87.1097 15.1602 90.5006 16.2753 91.1299 18.9032L101.894 63.853L98.1719 60.2141C96.3566 58.4395 93.72 57.7193 91.2145 58.2894ZM31.4082 100.125C31.7214 101.433 32.3258 102.602 33.1386 103.583L21.6985 105.918C19.6281 106.341 17.6562 105.093 17.2029 103.2L7.09521 60.9924C6.79439 59.7362 7.21675 58.4024 8.23179 57.5041L18.9335 48.0331L31.4082 100.125ZM94.4757 63.8189L113.383 82.3021C114.53 83.4229 114.011 85.4003 112.282 85.7935L50.7738 99.7889C49.5438 100.069 48.3784 99.3306 48.1164 98.2367L42.9418 76.6286C42.6822 75.5444 43.3801 74.3953 44.6027 74.1171L92.3783 63.2465C93.1479 63.0714 93.9422 63.2973 94.4757 63.8189Z" fill="url(#paint0_linear_7_174)" stroke="white" stroke-width="2"/>
    <defs>
        <linearGradient id="paint0_linear_7_174" x1="24.4965" y1="8.50091" x2="94.8587" y2="82.9531" gradientUnits="userSpaceOnUse">
            <stop stop-color="#FF1309"/>
            <stop offset="1"/>
        </linearGradient>
    </defs>
</svg>
